<svg width="139" height="139" viewBox="0 0 139 139" fill="none" xmlns="http://www.w3.org/2000/svg">
<g id="&#240;&#159;&#166;&#134; icon &#34;circle apple&#34;">
<path id="Vector" d="M69.4539 0C79.068 0 88.0744 1.82337 96.4729 5.47012C104.872 9.11686 112.22 14.0621 118.519 20.3057C124.818 26.5494 129.791 33.8981 133.438 42.352C137.084 50.8058 138.908 59.8397 138.908 69.4539C138.908 79.068 137.084 88.0744 133.438 96.4729C129.791 104.872 124.818 112.22 118.519 118.519C112.22 124.818 104.872 129.791 96.4729 133.438C88.0744 137.084 79.068 138.908 69.4539 138.908C59.8397 138.908 50.8058 137.084 42.352 133.438C33.8981 129.791 26.5494 124.818 20.3057 118.519C14.0621 112.22 9.11686 104.872 5.47012 96.4729C1.82337 88.0744 0 79.068 0 69.4539C0 59.8397 1.82337 50.8058 5.47012 42.352C9.11686 33.8981 14.0621 26.5494 20.3057 20.3057C26.5494 14.0621 33.8981 9.11686 42.352 5.47012C50.8058 1.82337 59.8397 0 69.4539 0ZM73.5979 36.3017C72.2718 37.7383 71.1668 39.5616 70.2827 41.7718C69.3986 43.9819 69.0671 46.1921 69.2881 48.4022C71.4983 48.6232 73.6808 48.1536 75.8357 46.9933C77.9906 45.8329 79.7863 44.424 81.2229 42.7664C82.6595 41.1087 83.7646 39.2025 84.5381 37.0476C85.3117 34.8927 85.588 32.6549 85.367 30.3343C83.3778 30.4448 81.2782 31.0526 79.068 32.1576C76.8579 33.2627 75.0345 34.6441 73.5979 36.3017ZM96.4729 98.7936C98.3516 96.0309 99.7329 93.5169 100.617 91.2515C101.501 88.9861 101.943 87.7981 101.943 87.6876C99.9539 86.8035 98.1858 85.6432 96.6387 84.2066C95.3126 82.991 94.097 81.3611 92.992 79.3167C91.8869 77.2723 91.3344 74.7582 91.3344 71.7745C91.3344 69.3434 91.7487 67.2161 92.5776 65.3927C93.4064 63.5694 94.3457 62.0499 95.3955 60.8343C96.4453 59.6187 97.4399 58.6794 98.3792 58.0164C99.3185 57.3533 99.8434 57.0218 99.9539 57.0218C98.7383 55.3642 97.4123 54.0105 95.9757 52.9607C94.5391 51.9108 93.1301 51.1373 91.7487 50.64C90.3674 50.1427 89.0966 49.7836 87.9362 49.5626C86.7759 49.3415 85.8642 49.231 85.2012 49.231C83.6541 49.1205 82.1346 49.231 80.6428 49.5626C79.1509 49.8941 77.7419 50.3085 76.4159 50.8058C75.0898 51.3031 73.8742 51.7727 72.7691 52.2147C71.664 52.6568 70.7247 52.8778 69.9512 52.8778C68.4041 52.8778 66.4702 52.2976 64.1495 51.1373C61.8289 49.977 59.3425 49.3968 56.6903 49.3968C53.2646 49.5073 50.1151 50.419 47.2419 52.1319C44.3687 53.8447 42.0481 56.193 40.2799 59.1767C38.5118 62.1604 37.462 65.448 37.1305 69.0395C36.799 72.631 36.9371 76.1948 37.5449 79.7311C38.1527 83.2673 39.1749 86.693 40.6115 90.0083C42.0481 93.3235 43.5952 96.1967 45.2528 98.6278C46.9104 100.948 48.789 103.186 50.8886 105.341C52.9883 107.496 55.3089 108.518 57.8506 108.408C59.1767 108.408 60.3094 108.242 61.2487 107.91C62.188 107.579 63.1273 107.22 64.0667 106.833C65.006 106.446 66.0005 106.087 67.0504 105.756C68.1002 105.424 69.3986 105.258 70.9457 105.258C72.4928 105.258 73.7913 105.424 74.8411 105.756C75.8909 106.087 76.8855 106.446 77.8248 106.833C78.7641 107.22 79.7311 107.579 80.7256 107.91C81.7202 108.242 82.8805 108.408 84.2066 108.408C86.9693 108.297 89.29 107.275 91.1686 105.341C93.0472 103.407 94.8153 101.225 96.4729 98.7936Z" fill="#828282"/>
</g>
</svg>
