<svg width="50" height="50" viewBox="0 0 50 50" fill="none" xmlns="http://www.w3.org/2000/svg">
<g id="&#240;&#159;&#166;&#134; icon &#34;rounded facebook&#34;">
<path id="Vector" d="M37.5149 0C39.2274 0 40.8403 0.328554 42.3536 0.985663C43.867 1.64277 45.1912 2.53883 46.3262 3.67384C47.4612 4.80884 48.3572 6.13301 49.0143 7.64636C49.6714 9.1597 50 10.7726 50 12.4851V37.4552C50 39.1677 49.6714 40.7905 49.0143 42.3238C48.3572 43.857 47.4612 45.1912 46.3262 46.3262C45.1912 47.4612 43.867 48.3572 42.3536 49.0143C40.8403 49.6714 39.2274 50 37.5149 50H12.4851C10.7726 50 9.1597 49.6714 7.64636 49.0143C6.13301 48.3572 4.80884 47.4612 3.67384 46.3262C2.53883 45.1912 1.64277 43.857 0.985663 42.3238C0.328554 40.7905 0 39.1677 0 37.4552V12.4851C0 10.7726 0.328554 9.1597 0.985663 7.64636C1.64277 6.13301 2.53883 4.80884 3.67384 3.67384C4.80884 2.53883 6.13301 1.64277 7.64636 0.985663C9.1597 0.328554 10.7726 0 12.4851 0H37.5149ZM34.3489 10.9319H29.092C28.0566 10.9319 27.1008 11.1111 26.2246 11.4695C25.3485 11.828 24.5918 12.2959 23.9546 12.8734C23.3174 13.4508 22.8096 14.1179 22.4313 14.8746C22.053 15.6312 21.8638 16.3879 21.8638 17.1446V20.3106H17.2043V26.5233H21.8638V39.0681H28.1362V26.5233H32.7957V20.3106H28.1362V18.7575C28.1362 18.2397 28.3254 17.8415 28.7037 17.5627C29.082 17.284 29.4106 17.1446 29.6894 17.1446H34.3489V10.9319Z" fill="#828282"/>
</g>
</svg>
