<svg width="50" height="50" viewBox="0 0 50 50" fill="none" xmlns="http://www.w3.org/2000/svg">
<g id="&#240;&#159;&#166;&#134; icon &#34;rounded instagram&#34;">
<path id="Vector" d="M33.4528 25.0299C33.4528 24.3528 33.3532 23.6161 33.1541 22.8196H35.6631V34.8865C35.6631 35.2051 35.5536 35.464 35.3345 35.6631C35.1155 35.8622 34.8467 35.9618 34.5281 35.9618H14.8746C14.556 35.9618 14.2971 35.8622 14.098 35.6631C13.8988 35.464 13.7993 35.2051 13.7993 34.8865V22.8196H16.2485C16.0494 23.6161 15.9498 24.3528 15.9498 25.0299C15.9498 26.2246 16.1788 27.3596 16.6368 28.4349C17.0948 29.5102 17.722 30.4361 18.5185 31.2127C19.315 31.9892 20.2509 32.6065 21.3262 33.0645C22.4014 33.5225 23.5364 33.7515 24.7312 33.7515C25.9259 33.7515 27.0609 33.5225 28.1362 33.0645C29.2115 32.6065 30.1374 31.9892 30.914 31.2127C31.6906 30.4361 32.3078 29.5102 32.7658 28.4349C33.2238 27.3596 33.4528 26.2246 33.4528 25.0299ZM24.7312 30.466C23.9745 30.466 23.2577 30.3266 22.5806 30.0478C21.9036 29.769 21.3162 29.3807 20.8184 28.8829C20.3206 28.3851 19.9323 27.8076 19.6535 27.1505C19.3748 26.4934 19.2354 25.7865 19.2354 25.0299C19.2354 24.2732 19.3748 23.5564 19.6535 22.8793C19.9323 22.2023 20.3206 21.6149 20.8184 21.1171C21.3162 20.6193 21.9036 20.231 22.5806 19.9522C23.2577 19.6734 23.9745 19.534 24.7312 19.534C25.4879 19.534 26.1947 19.6734 26.8519 19.9522C27.509 20.231 28.0864 20.6193 28.5842 21.1171C29.082 21.6149 29.4703 22.2023 29.7491 22.8793C30.0279 23.5564 30.1673 24.2732 30.1673 25.0299C30.1673 25.7865 30.0279 26.4934 29.7491 27.1505C29.4703 27.8076 29.082 28.3851 28.5842 28.8829C28.0864 29.3807 27.509 29.769 26.8519 30.0478C26.1947 30.3266 25.4879 30.466 24.7312 30.466ZM34.5281 14.098C34.8467 14.098 35.1155 14.1975 35.3345 14.3967C35.5536 14.5958 35.6631 14.8546 35.6631 15.1732V18.4588C35.6631 18.7774 35.5536 19.0362 35.3345 19.2354C35.1155 19.4345 34.8467 19.534 34.5281 19.534H31.2425C30.9239 19.534 30.6651 19.4345 30.466 19.2354C30.2668 19.0362 30.1673 18.7774 30.1673 18.4588V15.1732C30.1673 14.8546 30.2668 14.5958 30.466 14.3967C30.6651 14.1975 30.9239 14.098 31.2425 14.098H34.5281ZM37.4552 0C39.1677 0 40.7905 0.328554 42.3238 0.985663C43.857 1.64277 45.1912 2.53883 46.3262 3.67384C47.4612 4.80884 48.3572 6.13301 49.0143 7.64636C49.6714 9.1597 50 10.7726 50 12.4851V37.4552C50 39.1677 49.6714 40.7905 49.0143 42.3238C48.3572 43.857 47.4612 45.1912 46.3262 46.3262C45.1912 47.4612 43.857 48.3572 42.3238 49.0143C40.7905 49.6714 39.1677 50 37.4552 50H12.4851C10.7726 50 9.1597 49.6714 7.64636 49.0143C6.13301 48.3572 4.80884 47.4612 3.67384 46.3262C2.53883 45.1912 1.64277 43.857 0.985663 42.3238C0.328554 40.7905 0 39.1677 0 37.4552V12.4851C0 10.7726 0.328554 9.1597 0.985663 7.64636C1.64277 6.13301 2.53883 4.80884 3.67384 3.67384C4.80884 2.53883 6.13301 1.64277 7.64636 0.985663C9.1597 0.328554 10.7726 0 12.4851 0H37.4552ZM38.9486 14.098C38.9486 13.182 38.63 12.4054 37.9928 11.7682C37.3556 11.131 36.5791 10.8124 35.6631 10.8124H13.7993C12.8833 10.8124 12.1067 11.131 11.4695 11.7682C10.8323 12.4054 10.5137 13.182 10.5137 14.098V35.9618C10.5137 36.8777 10.8323 37.6543 11.4695 38.2915C12.1067 38.9287 12.8833 39.2473 13.7993 39.2473H35.6631C36.5791 39.2473 37.3556 38.9287 37.9928 38.2915C38.63 37.6543 38.9486 36.8777 38.9486 35.9618V14.098Z" fill="#828282"/>
</g>
</svg>
