<svg width="132" height="138" viewBox="0 0 132 138" fill="none" xmlns="http://www.w3.org/2000/svg">
<g id="Vector">
<path d="M4.55172 0H0V4.73202H4.55172V0Z" fill="#4F4F4F"/>
<path d="M9.10345 0H4.55172V4.73202H9.10345V0Z" fill="#4F4F4F"/>
<path d="M13.6552 0H9.10345V4.73202H13.6552V0Z" fill="#4F4F4F"/>
<path d="M18.2069 0H13.6552V4.73202H18.2069V0Z" fill="#4F4F4F"/>
<path d="M22.7586 0H18.2069V4.73202H22.7586V0Z" fill="#4F4F4F"/>
<path d="M27.3103 0H22.7586V4.73202H27.3103V0Z" fill="#4F4F4F"/>
<path d="M31.8621 0H27.3103V4.73202H31.8621V0Z" fill="#4F4F4F"/>
<path d="M40.9655 0H36.4138V4.73202H40.9655V0Z" fill="#4F4F4F"/>
<path d="M45.5172 0H40.9655V4.73202H45.5172V0Z" fill="#4F4F4F"/>
<path d="M54.6207 0H50.069V4.73202H54.6207V0Z" fill="#4F4F4F"/>
<path d="M72.8276 0H68.2759V4.73202H72.8276V0Z" fill="#4F4F4F"/>
<path d="M77.3793 0H72.8276V4.73202H77.3793V0Z" fill="#4F4F4F"/>
<path d="M86.4828 0H81.931V4.73202H86.4828V0Z" fill="#4F4F4F"/>
<path d="M104.69 0H100.138V4.73202H104.69V0Z" fill="#4F4F4F"/>
<path d="M109.241 0H104.69V4.73202H109.241V0Z" fill="#4F4F4F"/>
<path d="M113.793 0H109.241V4.73202H113.793V0Z" fill="#4F4F4F"/>
<path d="M118.345 0H113.793V4.73202H118.345V0Z" fill="#4F4F4F"/>
<path d="M122.897 0H118.345V4.73202H122.897V0Z" fill="#4F4F4F"/>
<path d="M127.448 0H122.897V4.73202H127.448V0Z" fill="#4F4F4F"/>
<path d="M132 0H127.448V4.73202H132V0Z" fill="#4F4F4F"/>
<path d="M4.55172 4.73202H0V9.46405H4.55172V4.73202Z" fill="#4F4F4F"/>
<path d="M31.8621 4.73202H27.3103V9.46405H31.8621V4.73202Z" fill="#4F4F4F"/>
<path d="M50.069 4.73202H45.5172V9.46405H50.069V4.73202Z" fill="#4F4F4F"/>
<path d="M59.1724 4.73202H54.6207V9.46405H59.1724V4.73202Z" fill="#4F4F4F"/>
<path d="M68.2759 4.73202H63.7241V9.46405H68.2759V4.73202Z" fill="#4F4F4F"/>
<path d="M72.8276 4.73202H68.2759V9.46405H72.8276V4.73202Z" fill="#4F4F4F"/>
<path d="M81.931 4.73202H77.3793V9.46405H81.931V4.73202Z" fill="#4F4F4F"/>
<path d="M95.5862 4.73202H91.0345V9.46405H95.5862V4.73202Z" fill="#4F4F4F"/>
<path d="M104.69 4.73202H100.138V9.46405H104.69V4.73202Z" fill="#4F4F4F"/>
<path d="M132 4.73202H127.448V9.46405H132V4.73202Z" fill="#4F4F4F"/>
<path d="M4.55172 9.46405H0V14.1961H4.55172V9.46405Z" fill="#4F4F4F"/>
<path d="M13.6552 9.46405H9.10345V14.1961H13.6552V9.46405Z" fill="#4F4F4F"/>
<path d="M18.2069 9.46405H13.6552V14.1961H18.2069V9.46405Z" fill="#4F4F4F"/>
<path d="M22.7586 9.46405H18.2069V14.1961H22.7586V9.46405Z" fill="#4F4F4F"/>
<path d="M31.8621 9.46405H27.3103V14.1961H31.8621V9.46405Z" fill="#4F4F4F"/>
<path d="M40.9655 9.46405H36.4138V14.1961H40.9655V9.46405Z" fill="#4F4F4F"/>
<path d="M54.6207 9.46405H50.069V14.1961H54.6207V9.46405Z" fill="#4F4F4F"/>
<path d="M77.3793 9.46405H72.8276V14.1961H77.3793V9.46405Z" fill="#4F4F4F"/>
<path d="M91.0345 9.46405H86.4828V14.1961H91.0345V9.46405Z" fill="#4F4F4F"/>
<path d="M104.69 9.46405H100.138V14.1961H104.69V9.46405Z" fill="#4F4F4F"/>
<path d="M113.793 9.46405H109.241V14.1961H113.793V9.46405Z" fill="#4F4F4F"/>
<path d="M118.345 9.46405H113.793V14.1961H118.345V9.46405Z" fill="#4F4F4F"/>
<path d="M122.897 9.46405H118.345V14.1961H122.897V9.46405Z" fill="#4F4F4F"/>
<path d="M132 9.46405H127.448V14.1961H132V9.46405Z" fill="#4F4F4F"/>
<path d="M4.55172 14.1961H0V18.9281H4.55172V14.1961Z" fill="#4F4F4F"/>
<path d="M13.6552 14.1961H9.10345V18.9281H13.6552V14.1961Z" fill="#4F4F4F"/>
<path d="M18.2069 14.1961H13.6552V18.9281H18.2069V14.1961Z" fill="#4F4F4F"/>
<path d="M22.7586 14.1961H18.2069V18.9281H22.7586V14.1961Z" fill="#4F4F4F"/>
<path d="M31.8621 14.1961H27.3103V18.9281H31.8621V14.1961Z" fill="#4F4F4F"/>
<path d="M40.9655 14.1961H36.4138V18.9281H40.9655V14.1961Z" fill="#4F4F4F"/>
<path d="M50.069 14.1961H45.5172V18.9281H50.069V14.1961Z" fill="#4F4F4F"/>
<path d="M54.6207 14.1961H50.069V18.9281H54.6207V14.1961Z" fill="#4F4F4F"/>
<path d="M59.1724 14.1961H54.6207V18.9281H59.1724V14.1961Z" fill="#4F4F4F"/>
<path d="M63.7241 14.1961H59.1724V18.9281H63.7241V14.1961Z" fill="#4F4F4F"/>
<path d="M77.3793 14.1961H72.8276V18.9281H77.3793V14.1961Z" fill="#4F4F4F"/>
<path d="M81.931 14.1961H77.3793V18.9281H81.931V14.1961Z" fill="#4F4F4F"/>
<path d="M86.4828 14.1961H81.931V18.9281H86.4828V14.1961Z" fill="#4F4F4F"/>
<path d="M91.0345 14.1961H86.4828V18.9281H91.0345V14.1961Z" fill="#4F4F4F"/>
<path d="M104.69 14.1961H100.138V18.9281H104.69V14.1961Z" fill="#4F4F4F"/>
<path d="M113.793 14.1961H109.241V18.9281H113.793V14.1961Z" fill="#4F4F4F"/>
<path d="M118.345 14.1961H113.793V18.9281H118.345V14.1961Z" fill="#4F4F4F"/>
<path d="M122.897 14.1961H118.345V18.9281H122.897V14.1961Z" fill="#4F4F4F"/>
<path d="M132 14.1961H127.448V18.9281H132V14.1961Z" fill="#4F4F4F"/>
<path d="M4.55172 18.9281H0V23.6601H4.55172V18.9281Z" fill="#4F4F4F"/>
<path d="M13.6552 18.9281H9.10345V23.6601H13.6552V18.9281Z" fill="#4F4F4F"/>
<path d="M18.2069 18.9281H13.6552V23.6601H18.2069V18.9281Z" fill="#4F4F4F"/>
<path d="M22.7586 18.9281H18.2069V23.6601H22.7586V18.9281Z" fill="#4F4F4F"/>
<path d="M31.8621 18.9281H27.3103V23.6601H31.8621V18.9281Z" fill="#4F4F4F"/>
<path d="M45.5172 18.9281H40.9655V23.6601H45.5172V18.9281Z" fill="#4F4F4F"/>
<path d="M50.069 18.9281H45.5172V23.6601H50.069V18.9281Z" fill="#4F4F4F"/>
<path d="M63.7241 18.9281H59.1724V23.6601H63.7241V18.9281Z" fill="#4F4F4F"/>
<path d="M68.2759 18.9281H63.7241V23.6601H68.2759V18.9281Z" fill="#4F4F4F"/>
<path d="M72.8276 18.9281H68.2759V23.6601H72.8276V18.9281Z" fill="#4F4F4F"/>
<path d="M77.3793 18.9281H72.8276V23.6601H77.3793V18.9281Z" fill="#4F4F4F"/>
<path d="M91.0345 18.9281H86.4828V23.6601H91.0345V18.9281Z" fill="#4F4F4F"/>
<path d="M95.5862 18.9281H91.0345V23.6601H95.5862V18.9281Z" fill="#4F4F4F"/>
<path d="M104.69 18.9281H100.138V23.6601H104.69V18.9281Z" fill="#4F4F4F"/>
<path d="M113.793 18.9281H109.241V23.6601H113.793V18.9281Z" fill="#4F4F4F"/>
<path d="M118.345 18.9281H113.793V23.6601H118.345V18.9281Z" fill="#4F4F4F"/>
<path d="M122.897 18.9281H118.345V23.6601H122.897V18.9281Z" fill="#4F4F4F"/>
<path d="M132 18.9281H127.448V23.6601H132V18.9281Z" fill="#4F4F4F"/>
<path d="M4.55172 23.6601H0V28.3921H4.55172V23.6601Z" fill="#4F4F4F"/>
<path d="M31.8621 23.6601H27.3103V28.3921H31.8621V23.6601Z" fill="#4F4F4F"/>
<path d="M40.9655 23.6601H36.4138V28.3921H40.9655V23.6601Z" fill="#4F4F4F"/>
<path d="M45.5172 23.6601H40.9655V28.3921H45.5172V23.6601Z" fill="#4F4F4F"/>
<path d="M50.069 23.6601H45.5172V28.3921H50.069V23.6601Z" fill="#4F4F4F"/>
<path d="M63.7241 23.6601H59.1724V28.3921H63.7241V23.6601Z" fill="#4F4F4F"/>
<path d="M77.3793 23.6601H72.8276V28.3921H77.3793V23.6601Z" fill="#4F4F4F"/>
<path d="M86.4828 23.6601H81.931V28.3921H86.4828V23.6601Z" fill="#4F4F4F"/>
<path d="M104.69 23.6601H100.138V28.3921H104.69V23.6601Z" fill="#4F4F4F"/>
<path d="M132 23.6601H127.448V28.3921H132V23.6601Z" fill="#4F4F4F"/>
<path d="M4.55172 28.3921H0V33.1242H4.55172V28.3921Z" fill="#4F4F4F"/>
<path d="M9.10345 28.3921H4.55172V33.1242H9.10345V28.3921Z" fill="#4F4F4F"/>
<path d="M13.6552 28.3921H9.10345V33.1242H13.6552V28.3921Z" fill="#4F4F4F"/>
<path d="M18.2069 28.3921H13.6552V33.1242H18.2069V28.3921Z" fill="#4F4F4F"/>
<path d="M22.7586 28.3921H18.2069V33.1242H22.7586V28.3921Z" fill="#4F4F4F"/>
<path d="M27.3103 28.3921H22.7586V33.1242H27.3103V28.3921Z" fill="#4F4F4F"/>
<path d="M31.8621 28.3921H27.3103V33.1242H31.8621V28.3921Z" fill="#4F4F4F"/>
<path d="M40.9655 28.3921H36.4138V33.1242H40.9655V28.3921Z" fill="#4F4F4F"/>
<path d="M50.069 28.3921H45.5172V33.1242H50.069V28.3921Z" fill="#4F4F4F"/>
<path d="M59.1724 28.3921H54.6207V33.1242H59.1724V28.3921Z" fill="#4F4F4F"/>
<path d="M68.2759 28.3921H63.7241V33.1242H68.2759V28.3921Z" fill="#4F4F4F"/>
<path d="M77.3793 28.3921H72.8276V33.1242H77.3793V28.3921Z" fill="#4F4F4F"/>
<path d="M86.4828 28.3921H81.931V33.1242H86.4828V28.3921Z" fill="#4F4F4F"/>
<path d="M95.5862 28.3921H91.0345V33.1242H95.5862V28.3921Z" fill="#4F4F4F"/>
<path d="M104.69 28.3921H100.138V33.1242H104.69V28.3921Z" fill="#4F4F4F"/>
<path d="M109.241 28.3921H104.69V33.1242H109.241V28.3921Z" fill="#4F4F4F"/>
<path d="M113.793 28.3921H109.241V33.1242H113.793V28.3921Z" fill="#4F4F4F"/>
<path d="M118.345 28.3921H113.793V33.1242H118.345V28.3921Z" fill="#4F4F4F"/>
<path d="M122.897 28.3921H118.345V33.1242H122.897V28.3921Z" fill="#4F4F4F"/>
<path d="M127.448 28.3921H122.897V33.1242H127.448V28.3921Z" fill="#4F4F4F"/>
<path d="M132 28.3921H127.448V33.1242H132V28.3921Z" fill="#4F4F4F"/>
<path d="M40.9655 33.1242H36.4138V37.8562H40.9655V33.1242Z" fill="#4F4F4F"/>
<path d="M50.069 33.1242H45.5172V37.8562H50.069V33.1242Z" fill="#4F4F4F"/>
<path d="M59.1724 33.1242H54.6207V37.8562H59.1724V33.1242Z" fill="#4F4F4F"/>
<path d="M63.7241 33.1242H59.1724V37.8562H63.7241V33.1242Z" fill="#4F4F4F"/>
<path d="M68.2759 33.1242H63.7241V37.8562H68.2759V33.1242Z" fill="#4F4F4F"/>
<path d="M77.3793 33.1242H72.8276V37.8562H77.3793V33.1242Z" fill="#4F4F4F"/>
<path d="M81.931 33.1242H77.3793V37.8562H81.931V33.1242Z" fill="#4F4F4F"/>
<path d="M86.4828 33.1242H81.931V37.8562H86.4828V33.1242Z" fill="#4F4F4F"/>
<path d="M91.0345 33.1242H86.4828V37.8562H91.0345V33.1242Z" fill="#4F4F4F"/>
<path d="M4.55172 37.8562H0V42.5882H4.55172V37.8562Z" fill="#4F4F4F"/>
<path d="M9.10345 37.8562H4.55172V42.5882H9.10345V37.8562Z" fill="#4F4F4F"/>
<path d="M18.2069 37.8562H13.6552V42.5882H18.2069V37.8562Z" fill="#4F4F4F"/>
<path d="M31.8621 37.8562H27.3103V42.5882H31.8621V37.8562Z" fill="#4F4F4F"/>
<path d="M36.4138 37.8562H31.8621V42.5882H36.4138V37.8562Z" fill="#4F4F4F"/>
<path d="M54.6207 37.8562H50.069V42.5882H54.6207V37.8562Z" fill="#4F4F4F"/>
<path d="M59.1724 37.8562H54.6207V42.5882H59.1724V37.8562Z" fill="#4F4F4F"/>
<path d="M68.2759 37.8562H63.7241V42.5882H68.2759V37.8562Z" fill="#4F4F4F"/>
<path d="M86.4828 37.8562H81.931V42.5882H86.4828V37.8562Z" fill="#4F4F4F"/>
<path d="M91.0345 37.8562H86.4828V42.5882H91.0345V37.8562Z" fill="#4F4F4F"/>
<path d="M100.138 37.8562H95.5862V42.5882H100.138V37.8562Z" fill="#4F4F4F"/>
<path d="M104.69 37.8562H100.138V42.5882H104.69V37.8562Z" fill="#4F4F4F"/>
<path d="M109.241 37.8562H104.69V42.5882H109.241V37.8562Z" fill="#4F4F4F"/>
<path d="M118.345 37.8562H113.793V42.5882H118.345V37.8562Z" fill="#4F4F4F"/>
<path d="M122.897 37.8562H118.345V42.5882H122.897V37.8562Z" fill="#4F4F4F"/>
<path d="M132 37.8562H127.448V42.5882H132V37.8562Z" fill="#4F4F4F"/>
<path d="M9.10345 42.5882H4.55172V47.3202H9.10345V42.5882Z" fill="#4F4F4F"/>
<path d="M13.6552 42.5882H9.10345V47.3202H13.6552V42.5882Z" fill="#4F4F4F"/>
<path d="M18.2069 42.5882H13.6552V47.3202H18.2069V42.5882Z" fill="#4F4F4F"/>
<path d="M22.7586 42.5882H18.2069V47.3202H22.7586V42.5882Z" fill="#4F4F4F"/>
<path d="M27.3103 42.5882H22.7586V47.3202H27.3103V42.5882Z" fill="#4F4F4F"/>
<path d="M36.4138 42.5882H31.8621V47.3202H36.4138V42.5882Z" fill="#4F4F4F"/>
<path d="M45.5172 42.5882H40.9655V47.3202H45.5172V42.5882Z" fill="#4F4F4F"/>
<path d="M50.069 42.5882H45.5172V47.3202H50.069V42.5882Z" fill="#4F4F4F"/>
<path d="M63.7241 42.5882H59.1724V47.3202H63.7241V42.5882Z" fill="#4F4F4F"/>
<path d="M68.2759 42.5882H63.7241V47.3202H68.2759V42.5882Z" fill="#4F4F4F"/>
<path d="M81.931 42.5882H77.3793V47.3202H81.931V42.5882Z" fill="#4F4F4F"/>
<path d="M91.0345 42.5882H86.4828V47.3202H91.0345V42.5882Z" fill="#4F4F4F"/>
<path d="M104.69 42.5882H100.138V47.3202H104.69V42.5882Z" fill="#4F4F4F"/>
<path d="M109.241 42.5882H104.69V47.3202H109.241V42.5882Z" fill="#4F4F4F"/>
<path d="M113.793 42.5882H109.241V47.3202H113.793V42.5882Z" fill="#4F4F4F"/>
<path d="M127.448 42.5882H122.897V47.3202H127.448V42.5882Z" fill="#4F4F4F"/>
<path d="M132 42.5882H127.448V47.3202H132V42.5882Z" fill="#4F4F4F"/>
<path d="M9.10345 47.3202H4.55172V52.0523H9.10345V47.3202Z" fill="#4F4F4F"/>
<path d="M18.2069 47.3202H13.6552V52.0523H18.2069V47.3202Z" fill="#4F4F4F"/>
<path d="M27.3103 47.3202H22.7586V52.0523H27.3103V47.3202Z" fill="#4F4F4F"/>
<path d="M31.8621 47.3202H27.3103V52.0523H31.8621V47.3202Z" fill="#4F4F4F"/>
<path d="M36.4138 47.3202H31.8621V52.0523H36.4138V47.3202Z" fill="#4F4F4F"/>
<path d="M40.9655 47.3202H36.4138V52.0523H40.9655V47.3202Z" fill="#4F4F4F"/>
<path d="M45.5172 47.3202H40.9655V52.0523H45.5172V47.3202Z" fill="#4F4F4F"/>
<path d="M50.069 47.3202H45.5172V52.0523H50.069V47.3202Z" fill="#4F4F4F"/>
<path d="M54.6207 47.3202H50.069V52.0523H54.6207V47.3202Z" fill="#4F4F4F"/>
<path d="M59.1724 47.3202H54.6207V52.0523H59.1724V47.3202Z" fill="#4F4F4F"/>
<path d="M77.3793 47.3202H72.8276V52.0523H77.3793V47.3202Z" fill="#4F4F4F"/>
<path d="M86.4828 47.3202H81.931V52.0523H86.4828V47.3202Z" fill="#4F4F4F"/>
<path d="M95.5862 47.3202H91.0345V52.0523H95.5862V47.3202Z" fill="#4F4F4F"/>
<path d="M100.138 47.3202H95.5862V52.0523H100.138V47.3202Z" fill="#4F4F4F"/>
<path d="M109.241 47.3202H104.69V52.0523H109.241V47.3202Z" fill="#4F4F4F"/>
<path d="M122.897 47.3202H118.345V52.0523H122.897V47.3202Z" fill="#4F4F4F"/>
<path d="M132 47.3202H127.448V52.0523H132V47.3202Z" fill="#4F4F4F"/>
<path d="M18.2069 52.0523H13.6552V56.7843H18.2069V52.0523Z" fill="#4F4F4F"/>
<path d="M68.2759 52.0523H63.7241V56.7843H68.2759V52.0523Z" fill="#4F4F4F"/>
<path d="M72.8276 52.0523H68.2759V56.7843H72.8276V52.0523Z" fill="#4F4F4F"/>
<path d="M77.3793 52.0523H72.8276V56.7843H77.3793V52.0523Z" fill="#4F4F4F"/>
<path d="M81.931 52.0523H77.3793V56.7843H81.931V52.0523Z" fill="#4F4F4F"/>
<path d="M95.5862 52.0523H91.0345V56.7843H95.5862V52.0523Z" fill="#4F4F4F"/>
<path d="M113.793 52.0523H109.241V56.7843H113.793V52.0523Z" fill="#4F4F4F"/>
<path d="M132 52.0523H127.448V56.7843H132V52.0523Z" fill="#4F4F4F"/>
<path d="M4.55172 56.7843H0V61.5163H4.55172V56.7843Z" fill="#4F4F4F"/>
<path d="M9.10345 56.7843H4.55172V61.5163H9.10345V56.7843Z" fill="#4F4F4F"/>
<path d="M13.6552 56.7843H9.10345V61.5163H13.6552V56.7843Z" fill="#4F4F4F"/>
<path d="M18.2069 56.7843H13.6552V61.5163H18.2069V56.7843Z" fill="#4F4F4F"/>
<path d="M27.3103 56.7843H22.7586V61.5163H27.3103V56.7843Z" fill="#4F4F4F"/>
<path d="M31.8621 56.7843H27.3103V61.5163H31.8621V56.7843Z" fill="#4F4F4F"/>
<path d="M36.4138 56.7843H31.8621V61.5163H36.4138V56.7843Z" fill="#4F4F4F"/>
<path d="M45.5172 56.7843H40.9655V61.5163H45.5172V56.7843Z" fill="#4F4F4F"/>
<path d="M59.1724 56.7843H54.6207V61.5163H59.1724V56.7843Z" fill="#4F4F4F"/>
<path d="M81.931 56.7843H77.3793V61.5163H81.931V56.7843Z" fill="#4F4F4F"/>
<path d="M86.4828 56.7843H81.931V61.5163H86.4828V56.7843Z" fill="#4F4F4F"/>
<path d="M100.138 56.7843H95.5862V61.5163H100.138V56.7843Z" fill="#4F4F4F"/>
<path d="M109.241 56.7843H104.69V61.5163H109.241V56.7843Z" fill="#4F4F4F"/>
<path d="M113.793 56.7843H109.241V61.5163H113.793V56.7843Z" fill="#4F4F4F"/>
<path d="M122.897 56.7843H118.345V61.5163H122.897V56.7843Z" fill="#4F4F4F"/>
<path d="M13.6552 61.5163H9.10345V66.2483H13.6552V61.5163Z" fill="#4F4F4F"/>
<path d="M22.7586 61.5163H18.2069V66.2483H22.7586V61.5163Z" fill="#4F4F4F"/>
<path d="M36.4138 61.5163H31.8621V66.2483H36.4138V61.5163Z" fill="#4F4F4F"/>
<path d="M40.9655 61.5163H36.4138V66.2483H40.9655V61.5163Z" fill="#4F4F4F"/>
<path d="M54.6207 61.5163H50.069V66.2483H54.6207V61.5163Z" fill="#4F4F4F"/>
<path d="M63.7241 61.5163H59.1724V66.2483H63.7241V61.5163Z" fill="#4F4F4F"/>
<path d="M72.8276 61.5163H68.2759V66.2483H72.8276V61.5163Z" fill="#4F4F4F"/>
<path d="M81.931 61.5163H77.3793V66.2483H81.931V61.5163Z" fill="#4F4F4F"/>
<path d="M95.5862 61.5163H91.0345V66.2483H95.5862V61.5163Z" fill="#4F4F4F"/>
<path d="M100.138 61.5163H95.5862V66.2483H100.138V61.5163Z" fill="#4F4F4F"/>
<path d="M104.69 61.5163H100.138V66.2483H104.69V61.5163Z" fill="#4F4F4F"/>
<path d="M118.345 61.5163H113.793V66.2483H118.345V61.5163Z" fill="#4F4F4F"/>
<path d="M122.897 61.5163H118.345V66.2483H122.897V61.5163Z" fill="#4F4F4F"/>
<path d="M127.448 61.5163H122.897V66.2483H127.448V61.5163Z" fill="#4F4F4F"/>
<path d="M9.10345 66.2483H4.55172V70.9804H9.10345V66.2483Z" fill="#4F4F4F"/>
<path d="M13.6552 66.2483H9.10345V70.9804H13.6552V66.2483Z" fill="#4F4F4F"/>
<path d="M27.3103 66.2483H22.7586V70.9804H27.3103V66.2483Z" fill="#4F4F4F"/>
<path d="M31.8621 66.2483H27.3103V70.9804H31.8621V66.2483Z" fill="#4F4F4F"/>
<path d="M36.4138 66.2483H31.8621V70.9804H36.4138V66.2483Z" fill="#4F4F4F"/>
<path d="M40.9655 66.2483H36.4138V70.9804H40.9655V66.2483Z" fill="#4F4F4F"/>
<path d="M50.069 66.2483H45.5172V70.9804H50.069V66.2483Z" fill="#4F4F4F"/>
<path d="M54.6207 66.2483H50.069V70.9804H54.6207V66.2483Z" fill="#4F4F4F"/>
<path d="M68.2759 66.2483H63.7241V70.9804H68.2759V66.2483Z" fill="#4F4F4F"/>
<path d="M100.138 66.2483H95.5862V70.9804H100.138V66.2483Z" fill="#4F4F4F"/>
<path d="M113.793 66.2483H109.241V70.9804H113.793V66.2483Z" fill="#4F4F4F"/>
<path d="M118.345 66.2483H113.793V70.9804H118.345V66.2483Z" fill="#4F4F4F"/>
<path d="M127.448 66.2483H122.897V70.9804H127.448V66.2483Z" fill="#4F4F4F"/>
<path d="M132 66.2483H127.448V70.9804H132V66.2483Z" fill="#4F4F4F"/>
<path d="M4.55172 70.9804H0V75.7124H4.55172V70.9804Z" fill="#4F4F4F"/>
<path d="M9.10345 70.9804H4.55172V75.7124H9.10345V70.9804Z" fill="#4F4F4F"/>
<path d="M13.6552 70.9804H9.10345V75.7124H13.6552V70.9804Z" fill="#4F4F4F"/>
<path d="M59.1724 70.9804H54.6207V75.7124H59.1724V70.9804Z" fill="#4F4F4F"/>
<path d="M63.7241 70.9804H59.1724V75.7124H63.7241V70.9804Z" fill="#4F4F4F"/>
<path d="M68.2759 70.9804H63.7241V75.7124H68.2759V70.9804Z" fill="#4F4F4F"/>
<path d="M72.8276 70.9804H68.2759V75.7124H72.8276V70.9804Z" fill="#4F4F4F"/>
<path d="M100.138 70.9804H95.5862V75.7124H100.138V70.9804Z" fill="#4F4F4F"/>
<path d="M104.69 70.9804H100.138V75.7124H104.69V70.9804Z" fill="#4F4F4F"/>
<path d="M113.793 70.9804H109.241V75.7124H113.793V70.9804Z" fill="#4F4F4F"/>
<path d="M122.897 70.9804H118.345V75.7124H122.897V70.9804Z" fill="#4F4F4F"/>
<path d="M127.448 70.9804H122.897V75.7124H127.448V70.9804Z" fill="#4F4F4F"/>
<path d="M4.55172 75.7124H0V80.4444H4.55172V75.7124Z" fill="#4F4F4F"/>
<path d="M31.8621 75.7124H27.3103V80.4444H31.8621V75.7124Z" fill="#4F4F4F"/>
<path d="M40.9655 75.7124H36.4138V80.4444H40.9655V75.7124Z" fill="#4F4F4F"/>
<path d="M50.069 75.7124H45.5172V80.4444H50.069V75.7124Z" fill="#4F4F4F"/>
<path d="M68.2759 75.7124H63.7241V80.4444H68.2759V75.7124Z" fill="#4F4F4F"/>
<path d="M77.3793 75.7124H72.8276V80.4444H77.3793V75.7124Z" fill="#4F4F4F"/>
<path d="M86.4828 75.7124H81.931V80.4444H86.4828V75.7124Z" fill="#4F4F4F"/>
<path d="M91.0345 75.7124H86.4828V80.4444H91.0345V75.7124Z" fill="#4F4F4F"/>
<path d="M109.241 75.7124H104.69V80.4444H109.241V75.7124Z" fill="#4F4F4F"/>
<path d="M113.793 75.7124H109.241V80.4444H113.793V75.7124Z" fill="#4F4F4F"/>
<path d="M118.345 75.7124H113.793V80.4444H118.345V75.7124Z" fill="#4F4F4F"/>
<path d="M4.55172 80.4444H0V85.1764H4.55172V80.4444Z" fill="#4F4F4F"/>
<path d="M9.10345 80.4444H4.55172V85.1764H9.10345V80.4444Z" fill="#4F4F4F"/>
<path d="M13.6552 80.4444H9.10345V85.1764H13.6552V80.4444Z" fill="#4F4F4F"/>
<path d="M22.7586 80.4444H18.2069V85.1764H22.7586V80.4444Z" fill="#4F4F4F"/>
<path d="M50.069 80.4444H45.5172V85.1764H50.069V80.4444Z" fill="#4F4F4F"/>
<path d="M59.1724 80.4444H54.6207V85.1764H59.1724V80.4444Z" fill="#4F4F4F"/>
<path d="M63.7241 80.4444H59.1724V85.1764H63.7241V80.4444Z" fill="#4F4F4F"/>
<path d="M72.8276 80.4444H68.2759V85.1764H72.8276V80.4444Z" fill="#4F4F4F"/>
<path d="M77.3793 80.4444H72.8276V85.1764H77.3793V80.4444Z" fill="#4F4F4F"/>
<path d="M109.241 80.4444H104.69V85.1764H109.241V80.4444Z" fill="#4F4F4F"/>
<path d="M118.345 80.4444H113.793V85.1764H118.345V80.4444Z" fill="#4F4F4F"/>
<path d="M127.448 80.4444H122.897V85.1764H127.448V80.4444Z" fill="#4F4F4F"/>
<path d="M4.55172 85.1764H0V89.9085H4.55172V85.1764Z" fill="#4F4F4F"/>
<path d="M22.7586 85.1764H18.2069V89.9085H22.7586V85.1764Z" fill="#4F4F4F"/>
<path d="M31.8621 85.1764H27.3103V89.9085H31.8621V85.1764Z" fill="#4F4F4F"/>
<path d="M50.069 85.1764H45.5172V89.9085H50.069V85.1764Z" fill="#4F4F4F"/>
<path d="M54.6207 85.1764H50.069V89.9085H54.6207V85.1764Z" fill="#4F4F4F"/>
<path d="M59.1724 85.1764H54.6207V89.9085H59.1724V85.1764Z" fill="#4F4F4F"/>
<path d="M72.8276 85.1764H68.2759V89.9085H72.8276V85.1764Z" fill="#4F4F4F"/>
<path d="M77.3793 85.1764H72.8276V89.9085H77.3793V85.1764Z" fill="#4F4F4F"/>
<path d="M81.931 85.1764H77.3793V89.9085H81.931V85.1764Z" fill="#4F4F4F"/>
<path d="M86.4828 85.1764H81.931V89.9085H86.4828V85.1764Z" fill="#4F4F4F"/>
<path d="M118.345 85.1764H113.793V89.9085H118.345V85.1764Z" fill="#4F4F4F"/>
<path d="M127.448 85.1764H122.897V89.9085H127.448V85.1764Z" fill="#4F4F4F"/>
<path d="M4.55172 89.9085H0V94.6405H4.55172V89.9085Z" fill="#4F4F4F"/>
<path d="M9.10345 89.9085H4.55172V94.6405H9.10345V89.9085Z" fill="#4F4F4F"/>
<path d="M13.6552 89.9085H9.10345V94.6405H13.6552V89.9085Z" fill="#4F4F4F"/>
<path d="M36.4138 89.9085H31.8621V94.6405H36.4138V89.9085Z" fill="#4F4F4F"/>
<path d="M40.9655 89.9085H36.4138V94.6405H40.9655V89.9085Z" fill="#4F4F4F"/>
<path d="M45.5172 89.9085H40.9655V94.6405H45.5172V89.9085Z" fill="#4F4F4F"/>
<path d="M50.069 89.9085H45.5172V94.6405H50.069V89.9085Z" fill="#4F4F4F"/>
<path d="M54.6207 89.9085H50.069V94.6405H54.6207V89.9085Z" fill="#4F4F4F"/>
<path d="M72.8276 89.9085H68.2759V94.6405H72.8276V89.9085Z" fill="#4F4F4F"/>
<path d="M86.4828 89.9085H81.931V94.6405H86.4828V89.9085Z" fill="#4F4F4F"/>
<path d="M95.5862 89.9085H91.0345V94.6405H95.5862V89.9085Z" fill="#4F4F4F"/>
<path d="M100.138 89.9085H95.5862V94.6405H100.138V89.9085Z" fill="#4F4F4F"/>
<path d="M113.793 89.9085H109.241V94.6405H113.793V89.9085Z" fill="#4F4F4F"/>
<path d="M118.345 89.9085H113.793V94.6405H118.345V89.9085Z" fill="#4F4F4F"/>
<path d="M122.897 89.9085H118.345V94.6405H122.897V89.9085Z" fill="#4F4F4F"/>
<path d="M127.448 89.9085H122.897V94.6405H127.448V89.9085Z" fill="#4F4F4F"/>
<path d="M9.10345 94.6405H4.55172V99.3725H9.10345V94.6405Z" fill="#4F4F4F"/>
<path d="M18.2069 94.6405H13.6552V99.3725H18.2069V94.6405Z" fill="#4F4F4F"/>
<path d="M27.3103 94.6405H22.7586V99.3725H27.3103V94.6405Z" fill="#4F4F4F"/>
<path d="M31.8621 94.6405H27.3103V99.3725H31.8621V94.6405Z" fill="#4F4F4F"/>
<path d="M50.069 94.6405H45.5172V99.3725H50.069V94.6405Z" fill="#4F4F4F"/>
<path d="M59.1724 94.6405H54.6207V99.3725H59.1724V94.6405Z" fill="#4F4F4F"/>
<path d="M68.2759 94.6405H63.7241V99.3725H68.2759V94.6405Z" fill="#4F4F4F"/>
<path d="M77.3793 94.6405H72.8276V99.3725H77.3793V94.6405Z" fill="#4F4F4F"/>
<path d="M91.0345 94.6405H86.4828V99.3725H91.0345V94.6405Z" fill="#4F4F4F"/>
<path d="M95.5862 94.6405H91.0345V99.3725H95.5862V94.6405Z" fill="#4F4F4F"/>
<path d="M100.138 94.6405H95.5862V99.3725H100.138V94.6405Z" fill="#4F4F4F"/>
<path d="M104.69 94.6405H100.138V99.3725H104.69V94.6405Z" fill="#4F4F4F"/>
<path d="M109.241 94.6405H104.69V99.3725H109.241V94.6405Z" fill="#4F4F4F"/>
<path d="M113.793 94.6405H109.241V99.3725H113.793V94.6405Z" fill="#4F4F4F"/>
<path d="M122.897 94.6405H118.345V99.3725H122.897V94.6405Z" fill="#4F4F4F"/>
<path d="M45.5172 99.3725H40.9655V104.105H45.5172V99.3725Z" fill="#4F4F4F"/>
<path d="M50.069 99.3725H45.5172V104.105H50.069V99.3725Z" fill="#4F4F4F"/>
<path d="M68.2759 99.3725H63.7241V104.105H68.2759V99.3725Z" fill="#4F4F4F"/>
<path d="M86.4828 99.3725H81.931V104.105H86.4828V99.3725Z" fill="#4F4F4F"/>
<path d="M95.5862 99.3725H91.0345V104.105H95.5862V99.3725Z" fill="#4F4F4F"/>
<path d="M113.793 99.3725H109.241V104.105H113.793V99.3725Z" fill="#4F4F4F"/>
<path d="M118.345 99.3725H113.793V104.105H118.345V99.3725Z" fill="#4F4F4F"/>
<path d="M122.897 99.3725H118.345V104.105H122.897V99.3725Z" fill="#4F4F4F"/>
<path d="M127.448 99.3725H122.897V104.105H127.448V99.3725Z" fill="#4F4F4F"/>
<path d="M4.55172 104.105H0V108.837H4.55172V104.105Z" fill="#4F4F4F"/>
<path d="M9.10345 104.105H4.55172V108.837H9.10345V104.105Z" fill="#4F4F4F"/>
<path d="M13.6552 104.105H9.10345V108.837H13.6552V104.105Z" fill="#4F4F4F"/>
<path d="M18.2069 104.105H13.6552V108.837H18.2069V104.105Z" fill="#4F4F4F"/>
<path d="M22.7586 104.105H18.2069V108.837H22.7586V104.105Z" fill="#4F4F4F"/>
<path d="M27.3103 104.105H22.7586V108.837H27.3103V104.105Z" fill="#4F4F4F"/>
<path d="M31.8621 104.105H27.3103V108.837H31.8621V104.105Z" fill="#4F4F4F"/>
<path d="M40.9655 104.105H36.4138V108.837H40.9655V104.105Z" fill="#4F4F4F"/>
<path d="M50.069 104.105H45.5172V108.837H50.069V104.105Z" fill="#4F4F4F"/>
<path d="M68.2759 104.105H63.7241V108.837H68.2759V104.105Z" fill="#4F4F4F"/>
<path d="M72.8276 104.105H68.2759V108.837H72.8276V104.105Z" fill="#4F4F4F"/>
<path d="M95.5862 104.105H91.0345V108.837H95.5862V104.105Z" fill="#4F4F4F"/>
<path d="M104.69 104.105H100.138V108.837H104.69V104.105Z" fill="#4F4F4F"/>
<path d="M113.793 104.105H109.241V108.837H113.793V104.105Z" fill="#4F4F4F"/>
<path d="M118.345 104.105H113.793V108.837H118.345V104.105Z" fill="#4F4F4F"/>
<path d="M122.897 104.105H118.345V108.837H122.897V104.105Z" fill="#4F4F4F"/>
<path d="M4.55172 108.837H0V113.569H4.55172V108.837Z" fill="#4F4F4F"/>
<path d="M31.8621 108.837H27.3103V113.569H31.8621V108.837Z" fill="#4F4F4F"/>
<path d="M45.5172 108.837H40.9655V113.569H45.5172V108.837Z" fill="#4F4F4F"/>
<path d="M72.8276 108.837H68.2759V113.569H72.8276V108.837Z" fill="#4F4F4F"/>
<path d="M77.3793 108.837H72.8276V113.569H77.3793V108.837Z" fill="#4F4F4F"/>
<path d="M81.931 108.837H77.3793V113.569H81.931V108.837Z" fill="#4F4F4F"/>
<path d="M86.4828 108.837H81.931V113.569H86.4828V108.837Z" fill="#4F4F4F"/>
<path d="M95.5862 108.837H91.0345V113.569H95.5862V108.837Z" fill="#4F4F4F"/>
<path d="M113.793 108.837H109.241V113.569H113.793V108.837Z" fill="#4F4F4F"/>
<path d="M118.345 108.837H113.793V113.569H118.345V108.837Z" fill="#4F4F4F"/>
<path d="M122.897 108.837H118.345V113.569H122.897V108.837Z" fill="#4F4F4F"/>
<path d="M127.448 108.837H122.897V113.569H127.448V108.837Z" fill="#4F4F4F"/>
<path d="M132 108.837H127.448V113.569H132V108.837Z" fill="#4F4F4F"/>
<path d="M4.55172 113.569H0V118.301H4.55172V113.569Z" fill="#4F4F4F"/>
<path d="M13.6552 113.569H9.10345V118.301H13.6552V113.569Z" fill="#4F4F4F"/>
<path d="M18.2069 113.569H13.6552V118.301H18.2069V113.569Z" fill="#4F4F4F"/>
<path d="M22.7586 113.569H18.2069V118.301H22.7586V113.569Z" fill="#4F4F4F"/>
<path d="M31.8621 113.569H27.3103V118.301H31.8621V113.569Z" fill="#4F4F4F"/>
<path d="M45.5172 113.569H40.9655V118.301H45.5172V113.569Z" fill="#4F4F4F"/>
<path d="M54.6207 113.569H50.069V118.301H54.6207V113.569Z" fill="#4F4F4F"/>
<path d="M59.1724 113.569H54.6207V118.301H59.1724V113.569Z" fill="#4F4F4F"/>
<path d="M72.8276 113.569H68.2759V118.301H72.8276V113.569Z" fill="#4F4F4F"/>
<path d="M91.0345 113.569H86.4828V118.301H91.0345V113.569Z" fill="#4F4F4F"/>
<path d="M95.5862 113.569H91.0345V118.301H95.5862V113.569Z" fill="#4F4F4F"/>
<path d="M100.138 113.569H95.5862V118.301H100.138V113.569Z" fill="#4F4F4F"/>
<path d="M104.69 113.569H100.138V118.301H104.69V113.569Z" fill="#4F4F4F"/>
<path d="M109.241 113.569H104.69V118.301H109.241V113.569Z" fill="#4F4F4F"/>
<path d="M113.793 113.569H109.241V118.301H113.793V113.569Z" fill="#4F4F4F"/>
<path d="M4.55172 118.301H0V123.033H4.55172V118.301Z" fill="#4F4F4F"/>
<path d="M13.6552 118.301H9.10345V123.033H13.6552V118.301Z" fill="#4F4F4F"/>
<path d="M18.2069 118.301H13.6552V123.033H18.2069V118.301Z" fill="#4F4F4F"/>
<path d="M22.7586 118.301H18.2069V123.033H22.7586V118.301Z" fill="#4F4F4F"/>
<path d="M31.8621 118.301H27.3103V123.033H31.8621V118.301Z" fill="#4F4F4F"/>
<path d="M40.9655 118.301H36.4138V123.033H40.9655V118.301Z" fill="#4F4F4F"/>
<path d="M45.5172 118.301H40.9655V123.033H45.5172V118.301Z" fill="#4F4F4F"/>
<path d="M50.069 118.301H45.5172V123.033H50.069V118.301Z" fill="#4F4F4F"/>
<path d="M63.7241 118.301H59.1724V123.033H63.7241V118.301Z" fill="#4F4F4F"/>
<path d="M72.8276 118.301H68.2759V123.033H72.8276V118.301Z" fill="#4F4F4F"/>
<path d="M86.4828 118.301H81.931V123.033H86.4828V118.301Z" fill="#4F4F4F"/>
<path d="M91.0345 118.301H86.4828V123.033H91.0345V118.301Z" fill="#4F4F4F"/>
<path d="M95.5862 118.301H91.0345V123.033H95.5862V118.301Z" fill="#4F4F4F"/>
<path d="M100.138 118.301H95.5862V123.033H100.138V118.301Z" fill="#4F4F4F"/>
<path d="M104.69 118.301H100.138V123.033H104.69V118.301Z" fill="#4F4F4F"/>
<path d="M109.241 118.301H104.69V123.033H109.241V118.301Z" fill="#4F4F4F"/>
<path d="M122.897 118.301H118.345V123.033H122.897V118.301Z" fill="#4F4F4F"/>
<path d="M127.448 118.301H122.897V123.033H127.448V118.301Z" fill="#4F4F4F"/>
<path d="M4.55172 123.033H0V127.765H4.55172V123.033Z" fill="#4F4F4F"/>
<path d="M13.6552 123.033H9.10345V127.765H13.6552V123.033Z" fill="#4F4F4F"/>
<path d="M18.2069 123.033H13.6552V127.765H18.2069V123.033Z" fill="#4F4F4F"/>
<path d="M22.7586 123.033H18.2069V127.765H22.7586V123.033Z" fill="#4F4F4F"/>
<path d="M31.8621 123.033H27.3103V127.765H31.8621V123.033Z" fill="#4F4F4F"/>
<path d="M50.069 123.033H45.5172V127.765H50.069V123.033Z" fill="#4F4F4F"/>
<path d="M77.3793 123.033H72.8276V127.765H77.3793V123.033Z" fill="#4F4F4F"/>
<path d="M81.931 123.033H77.3793V127.765H81.931V123.033Z" fill="#4F4F4F"/>
<path d="M86.4828 123.033H81.931V127.765H86.4828V123.033Z" fill="#4F4F4F"/>
<path d="M91.0345 123.033H86.4828V127.765H91.0345V123.033Z" fill="#4F4F4F"/>
<path d="M100.138 123.033H95.5862V127.765H100.138V123.033Z" fill="#4F4F4F"/>
<path d="M104.69 123.033H100.138V127.765H104.69V123.033Z" fill="#4F4F4F"/>
<path d="M113.793 123.033H109.241V127.765H113.793V123.033Z" fill="#4F4F4F"/>
<path d="M118.345 123.033H113.793V127.765H118.345V123.033Z" fill="#4F4F4F"/>
<path d="M132 123.033H127.448V127.765H132V123.033Z" fill="#4F4F4F"/>
<path d="M4.55172 127.765H0V132.497H4.55172V127.765Z" fill="#4F4F4F"/>
<path d="M31.8621 127.765H27.3103V132.497H31.8621V127.765Z" fill="#4F4F4F"/>
<path d="M40.9655 127.765H36.4138V132.497H40.9655V127.765Z" fill="#4F4F4F"/>
<path d="M50.069 127.765H45.5172V132.497H50.069V127.765Z" fill="#4F4F4F"/>
<path d="M54.6207 127.765H50.069V132.497H54.6207V127.765Z" fill="#4F4F4F"/>
<path d="M63.7241 127.765H59.1724V132.497H63.7241V127.765Z" fill="#4F4F4F"/>
<path d="M81.931 127.765H77.3793V132.497H81.931V127.765Z" fill="#4F4F4F"/>
<path d="M86.4828 127.765H81.931V132.497H86.4828V127.765Z" fill="#4F4F4F"/>
<path d="M91.0345 127.765H86.4828V132.497H91.0345V127.765Z" fill="#4F4F4F"/>
<path d="M95.5862 127.765H91.0345V132.497H95.5862V127.765Z" fill="#4F4F4F"/>
<path d="M100.138 127.765H95.5862V132.497H100.138V127.765Z" fill="#4F4F4F"/>
<path d="M104.69 127.765H100.138V132.497H104.69V127.765Z" fill="#4F4F4F"/>
<path d="M109.241 127.765H104.69V132.497H109.241V127.765Z" fill="#4F4F4F"/>
<path d="M113.793 127.765H109.241V132.497H113.793V127.765Z" fill="#4F4F4F"/>
<path d="M127.448 127.765H122.897V132.497H127.448V127.765Z" fill="#4F4F4F"/>
<path d="M132 127.765H127.448V132.497H132V127.765Z" fill="#4F4F4F"/>
<path d="M4.55172 132.497H0V137.229H4.55172V132.497Z" fill="#4F4F4F"/>
<path d="M9.10345 132.497H4.55172V137.229H9.10345V132.497Z" fill="#4F4F4F"/>
<path d="M13.6552 132.497H9.10345V137.229H13.6552V132.497Z" fill="#4F4F4F"/>
<path d="M18.2069 132.497H13.6552V137.229H18.2069V132.497Z" fill="#4F4F4F"/>
<path d="M22.7586 132.497H18.2069V137.229H22.7586V132.497Z" fill="#4F4F4F"/>
<path d="M27.3103 132.497H22.7586V137.229H27.3103V132.497Z" fill="#4F4F4F"/>
<path d="M31.8621 132.497H27.3103V137.229H31.8621V132.497Z" fill="#4F4F4F"/>
<path d="M40.9655 132.497H36.4138V137.229H40.9655V132.497Z" fill="#4F4F4F"/>
<path d="M59.1724 132.497H54.6207V137.229H59.1724V132.497Z" fill="#4F4F4F"/>
<path d="M63.7241 132.497H59.1724V137.229H63.7241V132.497Z" fill="#4F4F4F"/>
<path d="M72.8276 132.497H68.2759V137.229H72.8276V132.497Z" fill="#4F4F4F"/>
<path d="M77.3793 132.497H72.8276V137.229H77.3793V132.497Z" fill="#4F4F4F"/>
<path d="M86.4828 132.497H81.931V137.229H86.4828V132.497Z" fill="#4F4F4F"/>
<path d="M91.0345 132.497H86.4828V137.229H91.0345V132.497Z" fill="#4F4F4F"/>
<path d="M100.138 132.497H95.5862V137.229H100.138V132.497Z" fill="#4F4F4F"/>
<path d="M104.69 132.497H100.138V137.229H104.69V132.497Z" fill="#4F4F4F"/>
<path d="M118.345 132.497H113.793V137.229H118.345V132.497Z" fill="#4F4F4F"/>
<path d="M122.897 132.497H118.345V137.229H122.897V132.497Z" fill="#4F4F4F"/>
</g>
</svg>
