<svg width="50" height="50" viewBox="0 0 50 50" fill="none" xmlns="http://www.w3.org/2000/svg">
<g id="&#240;&#159;&#166;&#134; icon &#34;rounded twitterbird&#34;">
<path id="Vector" d="M37.5149 0C39.2274 0 40.8403 0.328554 42.3536 0.985663C43.867 1.64277 45.1912 2.53883 46.3262 3.67384C47.4612 4.80884 48.3572 6.13301 49.0143 7.64636C49.6714 9.1597 50 10.7726 50 12.4851V37.4552C50 39.1677 49.6714 40.7905 49.0143 42.3238C48.3572 43.857 47.4612 45.1912 46.3262 46.3262C45.1912 47.4612 43.867 48.3572 42.3536 49.0143C40.8403 49.6714 39.2274 50 37.5149 50H12.4851C10.7726 50 9.1597 49.6714 7.64636 49.0143C6.13301 48.3572 4.80884 47.4612 3.67384 46.3262C2.53883 45.1912 1.64277 43.857 0.985663 42.3238C0.328554 40.7905 0 39.1677 0 37.4552V12.4851C0 10.7726 0.328554 9.1597 0.985663 7.64636C1.64277 6.13301 2.53883 4.80884 3.67384 3.67384C4.80884 2.53883 6.13301 1.64277 7.64636 0.985663C9.1597 0.328554 10.7726 0 12.4851 0H37.5149ZM36.9176 18.8172C38.0725 18.0207 39.088 16.9853 39.9642 15.7109C39.4066 15.9498 38.8391 16.1489 38.2617 16.3082C37.6842 16.4675 37.0968 16.587 36.4994 16.6667C37.8136 15.8303 38.6898 14.6953 39.1278 13.2616C37.9331 14.0183 36.6587 14.5161 35.3047 14.7551C34.1099 13.4807 32.6165 12.8435 30.8244 12.8435C29.9881 12.8435 29.2015 13.0028 28.4648 13.3214C27.728 13.64 27.0908 14.0781 26.5532 14.6356C26.0155 15.1932 25.5874 15.8403 25.2688 16.5771C24.9502 17.3138 24.7909 18.1004 24.7909 18.9367C24.7909 19.1756 24.8009 19.4046 24.8208 19.6237C24.8407 19.8427 24.8706 20.0717 24.9104 20.3106C22.4014 20.1912 20.0717 19.5639 17.9211 18.4289C15.7706 17.2939 13.9387 15.8104 12.4253 13.9785C11.8678 14.8945 11.589 15.91 11.589 17.0251C11.589 18.0605 11.8379 19.0163 12.3357 19.8925C12.8335 20.7686 13.4807 21.4855 14.2772 22.043C13.7993 22.043 13.3313 21.9733 12.8734 21.8339C12.4154 21.6945 11.9673 21.5253 11.5293 21.3262V21.3859C11.5293 22.8594 11.9972 24.1438 12.9331 25.2389C13.869 26.3341 15.0339 27.041 16.4277 27.3596C15.8702 27.4791 15.3325 27.5388 14.8148 27.5388H14.2473L13.6798 27.4194C14.0781 28.6539 14.7849 29.6595 15.8005 30.4361C16.816 31.2127 18.0008 31.6209 19.3548 31.6607C18.3194 32.4572 17.1545 33.0944 15.8602 33.5723C14.5659 34.0502 13.2218 34.2891 11.828 34.2891C11.5492 34.2891 11.2903 34.2792 11.0514 34.2593C10.8124 34.2393 10.5735 34.2095 10.3345 34.1697C11.6886 35.0458 13.1521 35.7228 14.7252 36.2007C16.2983 36.6786 17.9411 36.9176 19.6535 36.9176C22.4413 36.9176 24.9104 36.3899 27.0609 35.3345C29.2115 34.2792 31.0135 32.9251 32.4671 31.2724C33.9207 29.6197 35.0259 27.7678 35.7826 25.7168C36.5392 23.6659 36.9176 21.6249 36.9176 19.5938V18.8172Z" fill="#828282"/>
</g>
</svg>
